PathFileType	4	(X/Y/Z)	s09c0301.trc
DataRate	CameraRate	NumFrames	NumMarkers	Units	OrigDataRate	OrigDataStartFrame	OrigNumFrames
200	200	5	50	mm	200	1500	2000
Frame#	Time	racr			lacr			c7			jug			rlel			rdr			llel			ldr			s2			lic			ric			lasi			rasi			rpsi			lpsi			rgt			lgt			rth1			rth2			rth3			rth4			rlfc			rmfc			rsh1			rsh2			rsh3			rsh4			rlmal			rmmal			rcal			rtoe			rmt5			lth1			lth2			lth4			lth3			llfc			lmfc			llmal			lmmal			lcal			lmt5			lsh1			lsh2			lsh3			lsh4			ltoe			SBIKE			LBIKE			RBIKE			
		X1	Y1	Z1	X2	Y2	Z2	X3	Y3	Z3	X4	Y4	Z4	X5	Y5	Z5	X6	Y6	Z6	X7	Y7	Z7	X8	Y8	Z8	X9	Y9	Z9	X10	Y10	Z10	X11	Y11	Z11	X12	Y12	Z12	X13	Y13	Z13	X14	Y14	Z14	X15	Y15	Z15	X16	Y16	Z16	X17	Y17	Z17	X18	Y18	Z18	X19	Y19	Z19	X20	Y20	Z20	X21	Y21	Z21	X22	Y22	Z22	X23	Y23	Z23	X24	Y24	Z24	X25	Y25	Z25	X26	Y26	Z26	X27	Y27	Z27	X28	Y28	Z28	X29	Y29	Z29	X30	Y30	Z30	X31	Y31	Z31	X32	Y32	Z32	X33	Y33	Z33	X34	Y34	Z34	X35	Y35	Z35	X36	Y36	Z36	X37	Y37	Z37	X38	Y38	Z38	X39	Y39	Z39	X40	Y40	Z40	X41	Y41	Z41	X42	Y42	Z42	X43	Y43	Z43	X44	Y44	Z44	X45	Y45	Z45	X46	Y46	Z46	X47	Y47	Z47	X48	Y48	Z48	X49	Y49	Z49	X50	Y50	Z50	
1500	7.5000	689.171608	1374.414115	-91.412980	709.075091	1328.495201	-446.316241	691.191649	1418.742638	-268.405867	699.672998	1277.444484	-256.925688	616.403615	1115.865808	-45.199400	723.032407	879.119628	-67.492162	589.914292	1078.734181	-516.108359	716.601478	880.081374	-464.511957	233.109295	1175.723408	-256.590140	375.166007	1129.149564	-394.334043	378.375262	1186.654065	-108.466476	403.793997	1075.312908	-358.452055	406.449824	1122.555969	-121.361568	262.301124	1216.947110	-202.068376	267.126710	1196.610347	-312.332092	349.384331	1066.055431	-44.105955	302.344788	994.090364	-408.236728	445.446537	962.317889	-52.394745	518.697911	916.153369	-67.836238	556.000459	836.101368	-69.443231	535.434277	932.548855	-96.783520	580.495966	732.923243	-101.155798	553.278856	722.285920	-198.033507	481.527416	701.715582	-70.676302	412.469865	645.467667	-82.743063	326.367081	630.448575	-79.747716	425.777568	622.596869	-112.135975	233.732762	587.133724	-77.393215	243.860765	593.928549	-153.758109	157.366755	626.753458	-115.617405	313.047770	413.259441	-131.396767	251.910555	466.007907	-63.330314	343.825888	868.197055	-403.695349	390.050392	797.265123	-395.284149	424.931515	807.595384	-384.904865	394.008709	707.123870	-386.915844	409.762452	614.572634	-370.090583	406.595027	596.478508	-275.555429	287.570226	270.380077	-401.646710	310.377707	269.939504	-332.415930	217.491073	252.609907	-367.744762	365.155265	162.460260	-431.254647	367.911297	524.828253	-401.338941	365.660691	438.272179	-398.524568	319.629427	362.398860	-403.049980	389.584241	431.437796	-366.951027	458.434348	151.798207	-363.243196	-64.804230	852.682663	-241.291579	21.175110	83.814876	-442.066233	21.151896	83.964674	-43.960124	
1501	7.5050	685.942456	1374.518647	-88.066127	710.953103	1328.926477	-443.213107	689.546165	1419.566906	-265.450042	698.412625	1278.135933	-253.803390	612.906775	1115.614191	-44.141953	722.615436	880.499608	-67.363032	592.029972	1079.441715	-515.086347	717.211265	880.178159	-465.591253	232.789300	1174.232378	-261.865385	377.964695	1127.297774	-395.906033	375.905033	1187.872455	-111.058213	405.521889	1073.893454	-359.307851	404.589137	1123.387813	-122.576203	261.073573	1215.972906	-207.013869	268.194298	1194.874851	-317.306285	346.675507	1067.911128	-46.369397	303.822301	992.146721	-410.370022	445.552845	966.653573	-53.978461	520.106135	922.333670	-68.314166	559.344459	843.284254	-69.319245	536.776458	939.155583	-96.962960	587.460072	740.265621	-99.787157	561.102441	729.455556	-197.742227	488.759109	708.458699	-70.331322	420.108152	651.785354	-82.602611	333.950502	636.249200	-80.130186	433.598779	628.687390	-111.822823	241.641725	591.714910	-77.671364	251.376157	598.708135	-154.357669	164.622742	630.365539	-115.862095	323.663577	419.285051	-131.690335	261.709584	470.998908	-63.554541	342.149340	867.415705	-405.151506	386.405577	795.225245	-396.309462	421.262722	804.710015	-385.240387	387.817042	704.954849	-388.501784	401.043948	612.078653	-371.116886	396.721382	593.721877	-276.166019	280.246655	267.415762	-402.008502	303.329956	266.892496	-333.027327	210.246806	251.399332	-367.866110	355.905584	158.004565	-431.095257	359.173882	522.384234	-402.348622	357.442602	435.805570	-399.467336	311.752195	359.765067	-403.799339	381.560973	429.126594	-367.916445	448.891390	145.214919	-362.977542	-64.876851	852.657513	-241.349674	21.156633	83.786223	-442.068513	21.150315	83.943916	-43.956014	
1502	7.5100	682.706521	1374.725139	-84.761869	712.622574	1329.414674	-439.923707	688.165452	1419.865640	-263.236988	697.824970	1278.839879	-250.773004	609.579066	1115.591936	-43.087560	722.198015	881.827593	-67.314562	593.924856	1080.086488	-513.789813	717.657848	880.260017	-466.376558	232.359370	1173.530375	-266.141507	380.565292	1125.769509	-396.782889	373.317277	1188.977813	-113.422173	407.075192	1072.438785	-360.190642	402.737500	1123.866040	-123.555533	259.827682	1214.785236	-211.661757	268.761605	1193.752206	-322.028300	344.312861	1069.504867	-48.348805	305.683110	990.879647	-413.493387	445.546846	970.881194	-55.237632	521.301619	928.296485	-68.715737	561.989615	850.055407	-70.092646	537.961182	945.556816	-97.053373	594.103528	748.146557	-99.187803	568.909017	735.897954	-197.763467	495.837657	715.279144	-70.129010	427.804593	657.916655	-82.426794	341.588946	641.389000	-80.511417	441.583133	634.848146	-111.433092	249.718936	595.699946	-78.014202	259.801710	602.718392	-154.327915	171.851670	633.005602	-115.839616	334.504488	424.803679	-131.839813	271.861170	475.832017	-63.606406	340.761264	866.933809	-406.798234	382.867213	793.694576	-397.761559	418.155301	801.939021	-385.380245	381.934828	703.289685	-390.364557	392.650396	609.960282	-372.566364	387.464108	591.626028	-277.108001	272.566329	265.037201	-402.441551	295.910889	264.400426	-333.706422	202.609414	250.506755	-367.964125	346.390103	154.130420	-430.968488	350.706839	520.236102	-403.645964	349.238984	433.695118	-400.613587	303.785168	357.461181	-404.613397	373.552267	427.137913	-369.257880	438.958588	139.573956	-362.851888	-64.923273	852.645207	-241.395343	21.143877	83.782138	-442.070138	21.134985	83.942975	-43.964382	
1503	7.5150	679.331698	1375.245971	-81.678929	714.288782	1329.670010	-436.612018	686.354570	1420.640347	-260.732616	697.132499	1279.571814	-247.726267	606.616784	1115.672233	-42.140537	721.913642	883.022905	-67.258668	595.397982	1080.635676	-512.439270	717.914017	880.318186	-466.826535	232.349234	1171.890515	-270.808335	383.301480	1123.915071	-397.660429	370.233769	1189.650622	-115.641909	408.736889	1070.834262	-360.994544	400.561415	1124.245106	-124.497008	258.562730	1213.707297	-216.370393	269.574324	1191.979101	-326.443276	341.430578	1070.846798	-50.712133	307.791197	989.655614	-416.414117	445.385776	974.793346	-56.487226	522.137483	933.912057	-69.264757	565.078426	856.570834	-69.817596	538.822393	951.715987	-96.972517	600.125667	755.308168	-98.205231	576.704701	742.388402	-198.059620	502.749342	722.020790	-69.956365	435.525335	663.621305	-82.257562	350.300856	646.350625	-79.488738	449.481112	640.850370	-110.884738	257.821163	598.913049	-78.311209	267.817914	606.245506	-154.518782	179.340541	635.033064	-116.010491	345.943293	429.616861	-132.032317	282.107646	479.717446	-63.765041	339.542788	866.501838	-408.530432	379.687529	792.295751	-399.294341	414.991929	799.566944	-386.229441	376.574547	702.000777	-392.718623	384.470166	608.244636	-374.516482	378.856123	590.091243	-278.346571	264.479556	263.101936	-403.086998	288.059850	262.498187	-334.588681	194.586670	250.034184	-368.256243	336.489098	150.885711	-430.920766	342.418519	518.372209	-405.225959	341.050279	431.887620	-402.024941	295.649989	355.544186	-405.601748	365.665964	425.380019	-370.846765	428.662445	134.645734	-362.604567	-64.959804	852.613064	-241.356515	21.130792	83.776077	-442.082378	21.134706	83.961687	-43.983225	
1504	7.5200	675.979635	1375.996958	-78.740801	715.973543	1329.799037	-433.397384	684.678882	1421.273632	-258.427204	696.522681	1280.260607	-244.590178	604.175014	1115.842151	-41.296275	721.723760	883.980486	-67.060725	596.623777	1081.295703	-510.975592	717.952681	880.343662	-466.899846	232.303579	1170.275826	-275.576792	385.968750	1122.152598	-398.629409	367.661796	1190.146627	-118.108443	410.455541	1069.234941	-361.707446	398.428881	1124.587992	-125.291408	257.468211	1212.537122	-220.774266	268.909054	1191.202710	-329.500438	338.486190	1071.905762	-53.023091	309.999125	988.706663	-418.631337	445.074330	978.267443	-57.598593	522.744488	939.132053	-69.929987	567.610376	863.249229	-69.709669	539.629107	957.465597	-97.293919	604.987142	764.141593	-97.110046	583.677496	748.801476	-198.939308	509.435496	728.640819	-69.827932	443.023432	669.266192	-82.121518	357.573848	651.112956	-79.741916	457.277404	646.167373	-110.383160	265.961009	601.547150	-78.561888	275.861661	609.139065	-154.770439	186.807247	636.263551	-115.973972	356.955101	434.328128	-132.303022	292.557856	482.952213	-64.021134	338.569444	866.244213	-410.474133	376.829868	791.011018	-400.903787	412.085747	797.432181	-387.243538	371.492966	700.763193	-394.934792	376.572447	606.758743	-376.797439	371.135407	588.982421	-279.811229	256.033180	261.788292	-403.982097	279.584403	261.127159	-335.630177	186.035523	249.865443	-369.000994	326.464517	148.144116	-430.816180	334.512752	516.680594	-407.042948	332.947613	430.291741	-403.643282	287.305031	353.990364	-406.739184	357.700730	423.704673	-372.647871	418.130502	130.633059	-362.193410	-65.011276	852.605747	-241.409587	21.120760	83.803600	-442.073509	21.135761	83.946626	-43.980044	
